# Blender v2.80 (sub 41) OBJ File: ''
# www.blender.org
o Cylinder_Cylinder.001
v 0.000000 0.000000 0.000000
v -0.000000 0.245773 -0.437500
v 0.113233 0.245773 -0.422593
v 0.218750 0.245773 -0.378886
v 0.309359 0.245773 -0.309359
v 0.378886 0.245773 -0.218750
v 0.422593 0.245773 -0.113233
v 0.437500 0.245773 -0.000000
v 0.422593 0.245773 0.113233
v 0.378886 0.245773 0.218750
v 0.309359 0.245773 0.309359
v 0.218750 0.245773 0.378886
v 0.113233 0.245773 0.422593
v 0.000000 0.245773 0.437500
v -0.113233 0.245773 0.422593
v -0.218750 0.245773 0.378886
v -0.309359 0.245773 0.309359
v -0.378886 0.245773 0.218750
v -0.422592 0.245773 0.113234
v -0.437500 0.245773 0.000000
v -0.422593 0.245773 -0.113233
v -0.378886 0.245773 -0.218750
v -0.309359 0.245773 -0.309359
v -0.218750 0.245773 -0.378886
v -0.113234 0.245773 -0.422592
v -0.000000 0.137511 -0.561357
v 0.145290 0.137511 -0.542229
v 0.280678 0.137511 -0.486149
v 0.396939 0.137511 -0.396939
v 0.486149 0.137511 -0.280678
v 0.542229 0.137511 -0.145290
v 0.561357 0.137511 -0.000000
v 0.542229 0.137511 0.145290
v 0.486149 0.137511 0.280678
v 0.396939 0.137511 0.396939
v 0.280678 0.137511 0.486149
v 0.145290 0.137511 0.542229
v 0.000000 0.137511 0.561357
v -0.145290 0.137511 0.542229
v -0.280678 0.137511 0.486149
v -0.396939 0.137511 0.396939
v -0.486149 0.137511 0.280679
v -0.542229 0.137511 0.145290
v -0.561357 0.137511 0.000000
v -0.542229 0.137511 -0.145290
v -0.486149 0.137511 -0.280678
v -0.396939 0.137511 -0.396939
v -0.280679 0.137511 -0.486149
v -0.145290 0.137511 -0.542229
vt 0.507911 0.504491
vt 0.568327 0.045579
vt 0.685044 0.076853
vt 0.789689 0.137270
vt 0.875131 0.222712
vt 0.935548 0.327357
vt 0.966822 0.444074
vt 0.966822 0.564908
vt 0.935548 0.681624
vt 0.875131 0.786269
vt 0.789689 0.871711
vt 0.685044 0.932128
vt 0.568328 0.963402
vt 0.447494 0.963402
vt 0.330778 0.932128
vt 0.226133 0.871711
vt 0.140691 0.786269
vt 0.080274 0.681624
vt 0.049000 0.564908
vt 0.049000 0.444075
vt 0.080273 0.327358
vt 0.140690 0.222713
vt 0.226132 0.137271
vt 0.330777 0.076854
vt 0.447493 0.045580
vt 0.506754 0.505204
vt 0.176876 0.188153
vt 0.270175 0.113578
vt 0.115128 0.741784
vt 0.067241 0.632362
vt 0.633912 0.944717
vt 0.515825 0.962652
vt 0.964202 0.496133
vt 0.950963 0.614839
vt 0.379597 0.065691
vt 0.497684 0.047756
vt 0.049306 0.514274
vt 0.062546 0.395569
vt 0.397119 0.949413
vt 0.285886 0.905901
vt 0.907451 0.726073
vt 0.836633 0.822255
vt 0.823805 0.175326
vt 0.898381 0.268625
vt 0.616389 0.060996
vt 0.727623 0.104507
vt 0.106058 0.284335
vt 0.189704 0.835083
vt 0.743333 0.896830
vt 0.946267 0.378046
vn 0.0643 -0.8700 -0.4888
vn 0.1887 -0.8700 -0.4555
vn 0.3001 -0.8700 -0.3911
vn 0.3911 -0.8700 -0.3001
vn 0.4555 -0.8700 -0.1887
vn 0.4888 -0.8700 -0.0643
vn 0.4888 -0.8700 0.0643
vn 0.4555 -0.8700 0.1887
vn 0.3911 -0.8700 0.3001
vn 0.3001 -0.8700 0.3911
vn 0.1887 -0.8700 0.4555
vn 0.0643 -0.8700 0.4888
vn -0.0643 -0.8700 0.4888
vn -0.1887 -0.8700 0.4555
vn -0.3001 -0.8700 0.3911
vn -0.3911 -0.8700 0.3001
vn -0.4555 -0.8700 0.1887
vn -0.4888 -0.8700 0.0643
vn -0.4888 -0.8700 -0.0643
vn -0.4555 -0.8700 -0.1887
vn -0.3911 -0.8700 -0.3001
vn -0.3001 -0.8700 -0.3911
vn -0.1887 -0.8700 -0.4555
vn -0.0643 -0.8700 -0.4888
vn -0.2378 0.9708 0.0313
vn -0.0918 0.9708 -0.2216
vn 0.1903 0.9708 -0.1460
vn 0.1903 0.9708 0.1460
vn -0.1903 0.9708 0.1460
vn -0.1903 0.9708 -0.1460
vn 0.0918 0.9708 -0.2216
vn 0.2378 0.9708 0.0313
vn 0.0313 0.9708 0.2378
vn -0.0918 0.9708 0.2216
vn -0.2378 0.9708 -0.0313
vn -0.0313 0.9708 -0.2378
vn 0.2216 0.9708 -0.0918
vn 0.1460 0.9708 0.1903
vn -0.2216 0.9708 0.0918
vn -0.1460 0.9708 -0.1903
vn 0.1460 0.9708 -0.1903
vn 0.2216 0.9708 0.0918
vn -0.1460 0.9708 0.1903
vn -0.2216 0.9708 -0.0918
vn 0.0313 0.9708 -0.2378
vn -0.0313 0.9708 0.2378
vn 0.2378 0.9708 -0.0313
vn 0.0918 0.9708 0.2216
s off
f 1/1/1 2/2/1 3/3/1
f 1/1/2 3/3/2 4/4/2
f 1/1/3 4/4/3 5/5/3
f 1/1/4 5/5/4 6/6/4
f 1/1/5 6/6/5 7/7/5
f 1/1/6 7/7/6 8/8/6
f 1/1/7 8/8/7 9/9/7
f 1/1/8 9/9/8 10/10/8
f 1/1/9 10/10/9 11/11/9
f 1/1/10 11/11/10 12/12/10
f 1/1/11 12/12/11 13/13/11
f 1/1/12 13/13/12 14/14/12
f 1/1/13 14/14/13 15/15/13
f 1/1/14 15/15/14 16/16/14
f 1/1/15 16/16/15 17/17/15
f 1/1/16 17/17/16 18/18/16
f 1/1/17 18/18/17 19/19/17
f 1/1/18 19/19/18 20/20/18
f 1/1/19 20/20/19 21/21/19
f 1/1/20 21/21/20 22/22/20
f 1/1/21 22/22/21 23/23/21
f 1/1/22 23/23/22 24/24/22
f 1/1/23 24/24/23 25/25/23
f 1/1/24 25/25/24 2/2/24
f 1/26/25 32/27/25 31/28/25
f 1/26/26 37/29/26 36/30/26
f 1/26/27 42/31/27 41/32/27
f 1/26/28 47/33/28 46/34/28
f 1/26/29 30/35/29 29/36/29
f 1/26/30 35/37/30 34/38/30
f 1/26/31 40/39/31 39/40/31
f 1/26/32 45/41/32 44/42/32
f 1/26/33 26/43/33 49/44/33
f 1/26/34 28/45/34 27/46/34
f 1/26/35 33/47/35 32/27/35
f 1/26/36 38/48/36 37/29/36
f 1/26/37 43/49/37 42/31/37
f 1/26/38 48/50/38 47/33/38
f 1/26/39 31/28/39 30/35/39
f 1/26/40 36/30/40 35/37/40
f 1/26/41 41/32/41 40/39/41
f 1/26/42 46/34/42 45/41/42
f 1/26/43 29/36/43 28/45/43
f 1/26/44 34/38/44 33/47/44
f 1/26/45 39/40/45 38/48/45
f 1/26/46 27/46/46 26/43/46
f 1/26/47 44/42/47 43/49/47
f 1/26/48 49/44/48 48/50/48
